<?xml version="1.0" encoding="utf-8"?>
<svg version="1.1" xmlns:xlink="http://www.w3.org/1999/xlink" width="12px" height="12px" viewBox="407 251.5  12 12" xmlns="http://www.w3.org/2000/svg">
  <path d="M 413 251.5  C 416.36 251.5  419 254.14  419 257.5  C 419 260.86  416.36 263.5  413 263.5  C 409.64 263.5  407 260.86  407 257.5  C 407 254.14  409.64 251.5  413 251.5  Z " fill-rule="nonzero" fill="#ffffff" stroke="none" />
  <path d="M 413 252  C 416.08 252  418.5 254.42  418.5 257.5  C 418.5 260.58  416.08 263  413 263  C 409.92 263  407.5 260.58  407.5 257.5  C 407.5 254.42  409.92 252  413 252  Z " stroke-width="1" stroke="#797979" fill="none" />
  <path d="M 413 260.5  C 411.32 260.5  410 259.18  410 257.5  C 410 255.82  411.32 254.5  413 254.5  C 414.68 254.5  416 255.82  416 257.5  C 416 259.18  414.68 260.5  413 260.5  " fill-rule="nonzero" fill="#797979" stroke="none" />
</svg>