<?xml version="1.0" encoding="utf-8"?>
<svg version="1.1" xmlns:xlink="http://www.w3.org/1999/xlink" width="12px" height="12px" viewBox="264 184.5  12 12" xmlns="http://www.w3.org/2000/svg">
  <path d="M 270 184.5  C 273.36 184.5  276 187.14  276 190.5  C 276 193.86  273.36 196.5  270 196.5  C 266.64 196.5  264 193.86  264 190.5  C 264 187.14  266.64 184.5  270 184.5  Z " fill-rule="nonzero" fill="#ffffff" stroke="none" />
  <path d="M 270 185  C 273.08 185  275.5 187.42  275.5 190.5  C 275.5 193.58  273.08 196  270 196  C 266.92 196  264.5 193.58  264.5 190.5  C 264.5 187.42  266.92 185  270 185  Z " stroke-width="1" stroke="#797979" fill="none" />
  <path d="M 270 193.5  C 268.32 193.5  267 192.18  267 190.5  C 267 188.82  268.32 187.5  270 187.5  C 271.68 187.5  273 188.82  273 190.5  C 273 192.18  271.68 193.5  270 193.5  " fill-rule="nonzero" fill="#797979" stroke="none" />
</svg>