<?xml version="1.0" encoding="utf-8"?>
<svg version="1.1" xmlns:xlink="http://www.w3.org/1999/xlink" width="12px" height="12px" viewBox="264 216.5  12 12" xmlns="http://www.w3.org/2000/svg">
  <path d="M 270 216.5  C 273.36 216.5  276 219.14  276 222.5  C 276 225.86  273.36 228.5  270 228.5  C 266.64 228.5  264 225.86  264 222.5  C 264 219.14  266.64 216.5  270 216.5  Z " fill-rule="nonzero" fill="#ffffff" stroke="none" />
  <path d="M 270 217  C 273.08 217  275.5 219.42  275.5 222.5  C 275.5 225.58  273.08 228  270 228  C 266.92 228  264.5 225.58  264.5 222.5  C 264.5 219.42  266.92 217  270 217  Z " stroke-width="1" stroke="#797979" fill="none" />
  <path d="M 270 225.5  C 268.32 225.5  267 224.18  267 222.5  C 267 220.82  268.32 219.5  270 219.5  C 271.68 219.5  273 220.82  273 222.5  C 273 224.18  271.68 225.5  270 225.5  " fill-rule="nonzero" fill="#797979" stroke="none" />
</svg>