<?xml version="1.0" encoding="utf-8"?>
<svg version="1.1" xmlns:xlink="http://www.w3.org/1999/xlink" width="300px" height="170px" xmlns="http://www.w3.org/2000/svg">
  <g transform="matrix(1 0 0 1 -57 -162 )">
    <path d="M 57 162  L 357 162  L 357 332  L 57 332  L 57 162  " fill-rule="nonzero" fill="#cccccc" stroke="none" />
    <path d="M 69 174  L 345 174  L 345 320  L 69 320  L 69 174  " fill-rule="nonzero" fill="#ffffff" stroke="none" />
    <path d="M 225.75 213  C 218.61 213  213 207.39  213 200.25  C 213 193.11  218.61 187.5  225.75 187.5  C 232.89 187.5  238.5 193.11  238.5 200.25  C 238.5 207.39  232.89 213  225.75 213  " fill-rule="nonzero" fill="#cccccc" stroke="none" />
    <path d="M 74 316  L 74 240.65  L 140.75 206.4  L 234.2 269.42  L 287.6 226.95  L 341 269.42  L 341 316  L 74 316  " fill-rule="nonzero" fill="#169bd5" stroke="none" />
  </g>
</svg>